<svg xmlns="http://www.w3.org/2000/svg" viewBox="0 0 400 280" width="400" height="280">
  <!-- Background -->
  <rect width="400" height="280" fill="#161b22"/>

  <!-- Window bar -->
  <rect width="400" height="36" fill="#0d1117"/>
  <circle cx="16" cy="18" r="5" fill="#e5534b"/>
  <circle cx="32" cy="18" r="5" fill="#c69026"/>
  <circle cx="48" cy="18" r="5" fill="#57ab5a"/>
  <text x="200" y="23" text-anchor="middle" font-family="JetBrains Mono, monospace" font-size="11" fill="#768390">~/todo-woo</text>

  <!-- Navbar -->
  <rect y="36" width="400" height="36" fill="#161b22"/>
  <rect y="72" width="400" height="1" fill="#30363d"/>
  <text x="16" y="60" font-family="JetBrains Mono, monospace" font-size="12" font-weight="700" fill="#57ab5a">~/</text>
  <text x="38" y="60" font-family="JetBrains Mono, monospace" font-size="12" font-weight="700" fill="#cdd9e5">martin-czarkowski</text>
  <text x="300" y="60" font-family="JetBrains Mono, monospace" font-size="11" fill="#768390">Current</text>
  <text x="352" y="60" font-family="JetBrains Mono, monospace" font-size="11" fill="#768390">+ New</text>

  <!-- Title -->
  <text x="16" y="108" font-family="JetBrains Mono, monospace" font-size="16" font-weight="700" fill="#cdd9e5">3 current todos</text>

  <!-- Todo item 1 - important -->
  <rect x="16" y="120" width="368" height="40" rx="6" fill="#161b22" stroke="#30363d" stroke-width="1"/>
  <rect x="16" y="120" width="3" height="40" rx="1" fill="#e5534b"/>
  <rect x="26" y="132" width="14" height="14" rx="3" fill="#0d1117" stroke="#30363d"/>
  <text x="50" y="144" font-family="JetBrains Mono, monospace" font-size="12" font-weight="700" fill="#cdd9e5">Fix production bug</text>
  <text x="340" y="144" font-family="JetBrains Mono, monospace" font-size="14" fill="#768390">›</text>

  <!-- Todo item 2 -->
  <rect x="16" y="168" width="368" height="40" rx="6" fill="#161b22" stroke="#30363d" stroke-width="1"/>
  <rect x="26" y="180" width="14" height="14" rx="3" fill="#0d1117" stroke="#30363d"/>
  <text x="50" y="192" font-family="JetBrains Mono, monospace" font-size="12" fill="#cdd9e5">Write unit tests</text>
  <text x="340" y="192" font-family="JetBrains Mono, monospace" font-size="14" fill="#768390">›</text>

  <!-- Todo item 3 -->
  <rect x="16" y="216" width="368" height="40" rx="6" fill="#161b22" stroke="#30363d" stroke-width="1"/>
  <rect x="26" y="228" width="14" height="14" rx="3" fill="#0d1117" stroke="#30363d"/>
  <text x="50" y="240" font-family="JetBrains Mono, monospace" font-size="12" fill="#cdd9e5">Deploy to production</text>
  <text x="340" y="240" font-family="JetBrains Mono, monospace" font-size="14" fill="#768390">›</text>
</svg>
